<?xml version="1.0" encoding="UTF-8"?>
<svg xmlns="http://www.w3.org/2000/svg" xmlns:xlink="http://www.w3.org/1999/xlink" width="192px" height="192px" viewBox="0 0 192 192" version="1.1">
<g id="surface1">
<path style=" stroke:none;fill-rule:nonzero;fill:rgb(4.705882%,50.588235%,25.098039%);fill-opacity:1;" d="M 10.238281 99.777344 L 10.238281 138.625 L 6.398438 138.625 L 6.398438 34.046875 L 12.199219 74.558594 L 15.898438 110.398438 C 16.0625 112.382812 16.230469 114.433594 16.410156 116.414062 C 16.589844 118.398438 16.753906 120.449219 16.921875 122.433594 C 17.023438 121.28125 17.125 120.128906 17.230469 118.976562 C 17.332031 117.824219 17.421875 116.671875 17.535156 115.519531 C 17.636719 114.367188 17.742188 113.214844 17.855469 112.128906 L 21.925781 74.558594 L 27.417969 34.046875 L 27.417969 138.625 L 23.578125 138.625 L 23.578125 99.777344 C 23.578125 98.878906 23.578125 97.152344 23.617188 94.464844 C 23.65625 91.777344 23.679688 88.894531 23.730469 85.824219 C 23.386719 89.855469 23.089844 93.3125 22.835938 96.191406 C 22.578125 99.070312 22.363281 101.246094 22.195312 102.847656 L 18.46875 138.558594 L 15.386719 138.558594 L 11.660156 102.847656 L 10.085938 85.824219 C 10.152344 89.34375 10.1875 92.222656 10.214844 94.59375 C 10.238281 96.894531 10.253906 98.625 10.253906 99.777344 Z M 10.238281 99.777344 "/>
<path style=" stroke:none;fill-rule:nonzero;fill:rgb(4.705882%,50.588235%,25.098039%);fill-opacity:1;" d="M 48.832031 113.984375 C 48.832031 121.984375 48.113281 128.191406 46.695312 132.734375 C 45.261719 137.28125 43.289062 139.519531 40.769531 139.519531 C 38.246094 139.519531 36.351562 137.214844 34.945312 132.671875 C 33.535156 128.128906 32.832031 121.855469 32.832031 113.921875 C 32.832031 105.984375 33.535156 99.777344 34.945312 95.230469 C 36.351562 90.6875 38.324219 88.449219 40.859375 88.449219 C 43.390625 88.449219 45.425781 90.625 46.785156 95.039062 C 48.152344 99.390625 48.832031 105.726562 48.832031 113.921875 Z M 44.519531 113.984375 C 44.519531 108.160156 44.210938 103.871094 43.597656 101.246094 C 42.980469 98.625 42.085938 97.28125 40.910156 97.28125 C 39.65625 97.28125 38.71875 98.6875 38.09375 101.441406 C 37.464844 104.191406 37.160156 108.414062 37.160156 113.984375 C 37.160156 119.550781 37.464844 123.648438 38.078125 126.527344 C 38.695312 129.40625 39.578125 130.816406 40.730469 130.816406 C 41.996094 130.816406 42.957031 129.40625 43.585938 126.59375 C 44.210938 123.777344 44.53125 119.550781 44.53125 113.984375 Z M 44.519531 113.984375 "/>
<path style=" stroke:none;fill-rule:nonzero;fill:rgb(4.705882%,50.588235%,25.098039%);fill-opacity:1;" d="M 58.484375 112.257812 L 58.484375 138.625 L 54.363281 138.625 L 54.363281 100.414062 C 54.363281 97.792969 54.363281 95.617188 54.324219 93.953125 C 54.296875 92.289062 54.273438 90.753906 54.246094 89.40625 L 58.175781 89.40625 C 58.1875 89.792969 58.214844 90.625 58.253906 91.96875 C 58.277344 93.3125 58.304688 94.71875 58.328125 96.128906 C 58.355469 97.535156 58.367188 98.558594 58.367188 99.199219 L 58.433594 99.199219 C 58.980469 95.425781 59.6875 92.734375 60.53125 91.007812 C 61.375 89.28125 62.375 88.449219 63.539062 88.449219 C 65.214844 88.449219 66.507812 90.046875 67.40625 93.246094 C 68.300781 96.449219 68.75 101.183594 68.75 107.328125 L 68.75 138.558594 L 64.640625 138.558594 L 64.640625 110.976562 C 64.640625 106.625 64.410156 103.425781 63.9375 101.246094 C 63.460938 99.070312 62.757812 98.046875 61.8125 98.046875 C 60.8125 98.046875 60.007812 99.390625 59.40625 102.015625 C 58.804688 104.640625 58.484375 108.097656 58.484375 112.191406 Z M 58.484375 112.257812 "/>
<path style=" stroke:none;fill-rule:nonzero;fill:rgb(4.705882%,50.588235%,25.098039%);fill-opacity:1;" d="M 78.363281 116.480469 C 78.363281 121.28125 78.644531 124.863281 79.21875 127.296875 C 79.796875 129.726562 80.601562 130.945312 81.664062 130.945312 C 82.394531 130.945312 82.980469 130.433594 83.441406 129.472656 C 83.902344 128.511719 84.238281 127.039062 84.414062 125.121094 L 88.308594 126.144531 C 87.179688 135.039062 84.902344 139.519531 81.460938 139.519531 C 79.078125 139.519531 77.234375 137.34375 75.957031 132.929688 C 74.675781 128.574219 74.035156 122.175781 74.035156 113.792969 C 74.035156 105.40625 74.6875 99.457031 75.980469 95.039062 C 77.273438 90.625 79.128906 88.511719 81.511719 88.511719 C 83.890625 88.511719 85.53125 90.878906 86.734375 95.550781 C 87.9375 100.222656 88.539062 107.070312 88.539062 116.097656 L 88.539062 116.480469 Z M 84.542969 108.480469 C 84.46875 104.511719 84.160156 101.503906 83.621094 99.519531 C 83.085938 97.535156 82.367188 96.574219 81.445312 96.574219 C 80.472656 96.574219 79.730469 97.601562 79.207031 99.710938 C 78.679688 101.824219 78.414062 104.703125 78.375 108.480469 Z M 84.542969 108.480469 "/>
<path style=" stroke:none;fill-rule:nonzero;fill:rgb(4.705882%,50.588235%,25.098039%);fill-opacity:1;" d="M 95.960938 157.953125 C 94.949219 157.953125 94.09375 157.761719 93.363281 157.375 L 93.363281 148.289062 C 93.914062 148.542969 94.386719 148.671875 94.785156 148.671875 C 95.742188 148.671875 96.460938 147.839844 96.933594 146.238281 C 97.40625 144.640625 97.867188 141.953125 98.316406 138.113281 L 92.042969 89.40625 L 96.398438 89.40625 L 98.894531 112.449219 C 99.085938 114.113281 99.316406 116.222656 99.558594 118.71875 C 99.800781 121.214844 100.070312 124.222656 100.378906 127.617188 C 100.609375 124.800781 100.8125 122.238281 101.03125 119.871094 C 101.234375 117.503906 101.464844 115.070312 101.707031 112.574219 L 104.050781 89.34375 L 108.363281 89.34375 L 102.09375 141.121094 C 101.835938 143.230469 101.566406 145.089844 101.285156 146.6875 C 101.003906 148.289062 100.710938 149.695312 100.414062 150.976562 C 99.8125 153.472656 99.175781 155.265625 98.46875 156.289062 C 97.765625 157.3125 96.933594 157.824219 95.972656 157.824219 Z M 95.960938 157.953125 "/>
<path style=" stroke:none;fill-rule:nonzero;fill:rgb(4.705882%,50.588235%,25.098039%);fill-opacity:1;" d="M 116.621094 99.777344 L 116.621094 138.625 L 112.78125 157.953125 L 112.78125 74.625 L 118.578125 74.625 L 122.277344 110.464844 C 122.445312 112.449219 122.609375 114.496094 122.789062 116.480469 C 122.96875 118.464844 123.136719 120.511719 123.300781 122.496094 C 123.40625 121.34375 123.507812 120.191406 123.609375 119.039062 C 123.710938 117.886719 123.800781 116.734375 123.902344 115.585938 C 124.007812 114.433594 124.109375 113.28125 124.222656 112.191406 L 128.027344 74.625 L 133.785156 74.625 L 133.785156 157.953125 L 129.945312 138.625 L 129.945312 99.777344 C 129.945312 98.878906 129.945312 97.152344 129.984375 94.464844 C 130.023438 91.777344 130.046875 88.894531 130.097656 85.824219 C 129.753906 89.855469 129.460938 93.3125 129.203125 96.191406 C 128.945312 99.070312 128.730469 101.246094 128.5625 102.847656 L 124.839844 138.558594 L 121.753906 138.558594 L 118.027344 102.847656 L 116.453125 85.824219 C 116.519531 89.34375 116.558594 92.222656 116.582031 94.59375 C 116.609375 96.894531 116.621094 98.625 116.621094 99.777344 Z M 116.621094 99.777344 "/>
<path style=" stroke:none;fill-rule:nonzero;fill:rgb(4.705882%,50.588235%,25.098039%);fill-opacity:1;" d="M 144.257812 71.167969 L 144.257812 80.574219 L 140.132812 80.574219 L 140.132812 71.167969 Z M 144.257812 89.40625 L 144.257812 138.558594 L 140.132812 138.558594 L 140.132812 89.40625 Z M 144.257812 89.40625 "/>
<path style=" stroke:none;fill-rule:nonzero;fill:rgb(4.705882%,50.588235%,25.098039%);fill-opacity:1;" d="M 154.855469 112.257812 L 154.855469 138.625 L 150.734375 138.625 L 150.734375 100.414062 C 150.734375 97.792969 150.734375 95.617188 150.695312 93.953125 C 150.667969 92.289062 150.644531 90.753906 150.617188 89.40625 L 154.546875 89.40625 C 154.574219 89.792969 154.585938 90.625 154.625 91.96875 C 154.648438 93.3125 154.675781 94.71875 154.699219 96.128906 C 154.726562 97.535156 154.738281 98.558594 154.738281 99.199219 L 154.804688 99.199219 C 155.367188 95.425781 156.058594 92.734375 156.902344 91.007812 C 157.746094 89.28125 158.746094 88.449219 159.910156 88.449219 C 161.585938 88.449219 162.878906 90.046875 163.777344 93.246094 C 164.671875 96.449219 165.121094 101.183594 165.121094 107.328125 L 165.121094 138.558594 L 161.011719 138.558594 L 161.011719 110.976562 C 161.011719 106.625 160.78125 103.425781 160.308594 101.246094 C 159.832031 99.070312 159.128906 98.046875 158.183594 98.046875 C 157.183594 98.046875 156.378906 99.390625 155.777344 102.015625 C 155.160156 104.640625 154.855469 108.097656 154.855469 112.191406 Z M 154.855469 112.257812 "/>
<path style=" stroke:none;fill-rule:nonzero;fill:rgb(4.705882%,50.588235%,25.098039%);fill-opacity:1;" d="M 181.605469 138.625 C 181.605469 138.625 181.554688 137.664062 181.515625 136.703125 C 181.476562 135.742188 181.441406 134.65625 181.425781 133.503906 C 181.414062 132.351562 181.390625 131.390625 181.390625 130.625 L 181.324219 130.625 C 180.875 133.566406 180.222656 135.808594 179.390625 137.28125 C 178.546875 138.753906 177.511719 139.519531 176.257812 139.519531 C 174.414062 139.519531 172.980469 137.28125 171.96875 132.800781 C 170.957031 128.320312 170.457031 122.113281 170.457031 114.046875 C 170.457031 105.984375 170.980469 99.585938 172.042969 95.167969 C 173.105469 90.753906 174.605469 88.511719 176.550781 88.511719 C 177.675781 88.511719 178.648438 89.214844 179.457031 90.6875 C 180.261719 92.160156 180.902344 94.335938 181.335938 97.214844 L 181.363281 97.214844 L 181.335938 89.152344 L 181.335938 71.167969 L 185.460938 71.167969 L 185.460938 127.871094 C 185.460938 129.40625 185.460938 131.070312 185.484375 132.800781 C 185.511719 134.59375 185.535156 136.511719 185.574219 138.558594 L 181.582031 138.558594 Z M 174.757812 114.046875 C 174.757812 119.617188 175.027344 123.777344 175.578125 126.59375 C 176.113281 129.40625 176.921875 130.753906 178.007812 130.753906 C 179.097656 130.753906 179.929688 129.28125 180.53125 126.335938 C 181.132812 123.390625 181.425781 119.167969 181.425781 113.726562 C 181.425781 108.289062 181.144531 104.320312 180.570312 101.503906 C 179.992188 98.6875 179.148438 97.214844 178.035156 97.214844 C 176.921875 97.214844 176.113281 98.625 175.578125 101.375 C 175.039062 104.128906 174.769531 108.414062 174.769531 114.113281 Z M 174.757812 114.046875 "/>
</g>
</svg>
