<?xml version="1.0" encoding="UTF-8"?>
<svg id="Layer_1" data-name="Layer 1" xmlns="http://www.w3.org/2000/svg" viewBox="0 0 150 30">
  <defs>
    <style>
      .cls-1 {
        fill: #0c8140;
        stroke-width: 0px;
      }
    </style>
  </defs>
  <path class="cls-1" d="M8,15.59v6.07h-3V5.32l4.53,6.33,2.89,5.6c.13.31.26.63.4.94.14.31.27.63.4.94.08-.18.16-.36.24-.54.08-.18.15-.36.24-.54.08-.18.16-.36.25-.53l3.18-5.87,4.29-6.33v16.34h-3v-6.07c0-.14,0-.41.03-.83s.05-.87.09-1.35c-.27.63-.5,1.17-.7,1.62-.2.45-.37.79-.5,1.04l-2.91,5.58h-2.41l-2.91-5.58-1.23-2.66c.05.55.08,1,.1,1.37.02.36.03.63.03.81Z"/>
  <path class="cls-1" d="M38.15,17.81c0,1.25-.56,2.22-1.67,2.93-1.12.71-2.66,1.06-4.63,1.06s-3.45-.36-4.55-1.07-1.65-1.69-1.65-2.93.55-2.21,1.65-2.92,2.64-1.06,4.62-1.06,3.57.34,4.63,1.03c1.07.68,1.6,1.67,1.6,2.95ZM34.78,17.81c0-.91-.24-1.58-.72-1.99-.48-.41-1.18-.62-2.1-.62-.98,0-1.71.22-2.2.65-.49.43-.73,1.09-.73,1.96s.24,1.51.72,1.96c.48.45,1.17.67,2.07.67.99,0,1.74-.22,2.23-.66.49-.44.74-1.1.74-1.97Z"/>
  <path class="cls-1" d="M45.69,17.54v4.12h-3.22v-5.97c0-.41,0-.75-.03-1.01-.02-.26-.04-.5-.06-.71h3.07c.01.06.03.19.06.4.02.21.04.43.06.65.02.22.03.38.03.48h.05c.43-.59.98-1.01,1.64-1.28.66-.27,1.44-.4,2.35-.4,1.31,0,2.32.25,3.02.75.7.5,1.05,1.24,1.05,2.2v4.88h-3.21v-4.31c0-.68-.18-1.18-.55-1.52-.37-.34-.92-.5-1.66-.5-.78,0-1.41.21-1.88.62s-.72.95-.72,1.59Z"/>
  <path class="cls-1" d="M61.22,18.2c0,.75.22,1.31.67,1.69.45.38,1.08.57,1.91.57.57,0,1.03-.08,1.39-.23.36-.15.62-.38.76-.68l3.04.16c-.88,1.39-2.66,2.09-5.35,2.09-1.86,0-3.3-.34-4.3-1.03-1-.68-1.5-1.68-1.5-2.99s.51-2.24,1.52-2.93,2.46-1.02,4.32-1.02,3.14.37,4.08,1.1c.94.73,1.41,1.8,1.41,3.21v.06h-7.95ZM66.05,16.95c-.06-.62-.3-1.09-.72-1.4-.42-.31-.98-.46-1.7-.46-.76,0-1.34.16-1.75.49s-.62.78-.65,1.37h4.81Z"/>
  <path class="cls-1" d="M74.97,24.68c-.79,0-1.46-.03-2.03-.09v-1.42c.43.04.8.06,1.11.06.75,0,1.31-.13,1.68-.38.37-.25.73-.67,1.08-1.27l-4.9-7.61h3.4l1.95,3.6c.15.26.33.59.52.98s.4.86.64,1.39c.18-.44.34-.84.51-1.21.16-.37.34-.75.53-1.14l1.83-3.63h3.37l-4.9,8.09c-.2.33-.41.62-.63.87-.22.25-.45.47-.68.67-.47.39-.97.67-1.52.83-.55.16-1.2.24-1.95.24Z"/>
  <path class="cls-1" d="M91.11,15.59v6.07l-3,3.02v-13.02h4.53l2.89,5.6c.13.31.26.63.4.94.14.31.27.63.4.94.08-.18.16-.36.24-.54.08-.18.15-.36.23-.54.08-.18.16-.36.25-.53l2.97-5.87h4.5v13.02l-3-3.02v-6.07c0-.14,0-.41.03-.83s.05-.87.09-1.35c-.27.63-.5,1.17-.7,1.62-.2.45-.37.79-.5,1.04l-2.91,5.58h-2.41l-2.91-5.58-1.23-2.66c.05.55.08,1,.1,1.37.02.36.03.63.03.81Z"/>
  <path class="cls-1" d="M112.7,11.12v1.47h-3.22v-1.47h3.22ZM112.7,13.97v7.68h-3.22v-7.68h3.22Z"/>
  <path class="cls-1" d="M120.98,17.54v4.12h-3.22v-5.97c0-.41,0-.75-.03-1.01-.02-.26-.04-.5-.06-.71h3.07c.02.06.03.19.06.4.02.21.04.43.06.65.02.22.03.38.03.48h.05c.44-.59.98-1.01,1.64-1.28s1.44-.4,2.35-.4c1.31,0,2.32.25,3.02.75s1.05,1.24,1.05,2.2v4.88h-3.21v-4.31c0-.68-.18-1.18-.55-1.52s-.92-.5-1.66-.5c-.78,0-1.41.21-1.88.62-.48.41-.72.95-.72,1.59Z"/>
  <path class="cls-1" d="M141.88,21.66s-.04-.15-.07-.3-.06-.32-.07-.5-.03-.33-.03-.45h-.05c-.35.46-.86.81-1.51,1.04-.66.23-1.47.35-2.45.35-1.44,0-2.56-.35-3.35-1.05-.79-.7-1.18-1.67-1.18-2.93s.41-2.26,1.24-2.95c.83-.69,2-1.04,3.52-1.04.88,0,1.64.11,2.27.34s1.13.57,1.47,1.02h.02l-.02-1.26v-2.81h3.22v8.86c0,.24,0,.5.02.77.02.28.04.58.07.9h-3.12ZM136.53,17.82c0,.87.21,1.52.64,1.96.42.44,1.05.65,1.9.65s1.5-.23,1.97-.69c.47-.46.7-1.12.7-1.97s-.22-1.47-.67-1.91-1.11-.67-1.98-.67-1.5.22-1.92.65c-.42.43-.63,1.1-.63,1.99Z"/>
</svg>